<svg xmlns="http://www.w3.org/2000/svg" width="40.057" height="42.028" viewBox="0 0 40.057 42.028">
  <path id="Subtraction_1" data-name="Subtraction 1" d="M18.529,39.028A4.309,4.309,0,0,1,16.47,38.5L8.027,33.93c.047-.04.1-.084.145-.133l3.983-3.983a7.438,7.438,0,0,0,3.313.755c3.736,0,7.554-2.53,10.1-4.653L12.2,12.545c-3.011,3.611-6.133,8.869-3.9,13.412L4.316,29.941a2.4,2.4,0,0,0-.7,1.6L2.059,30.7A3.883,3.883,0,0,1,0,27.32V11.706A3.883,3.883,0,0,1,2.059,8.33L16.47.523a4.313,4.313,0,0,1,4.118,0L35,8.33a3.881,3.881,0,0,1,2.058,3.377V27.32A3.881,3.881,0,0,1,35,30.7L20.588,38.5a4.293,4.293,0,0,1-2.058.523h0ZM15.143,7.545h0l-2.609,2.61L27.959,25.579l2.609-2.61-3.457-3.457L32.5,14.127,29.769,11.4l-5.385,5.385-3.057-3.057,5.385-5.386L23.986,5.617,18.6,11,15.143,7.545Z" transform="translate(1.5 1.5)" fill="none" stroke="#000" stroke-linecap="round" stroke-linejoin="round" stroke-width="3"/>
</svg>
